# xmcd
# 
# Track frame offsets:
#     150
#     20222
#     35921
#     51092
#     67568
#     88345
#     109260
#     128810
#     142393
#     160845
#     178286
#     196828
#     211767
#     228059
#     242163
# 
# Disc length: 3470
# 
# Revision: 14
# Processed by: cddbd v1.5.2PL0 Copyright (c) Steve Scherf et al.
# Submitted via: fre:ac v1.0.27
# 
DISCID=d90d8c0f
DTITLE=安全地帯 - 安全地帯IX
DYEAR=2002
DGENRE=J-Pop
TTITLE0=スタートライン
TTITLE1=なにもない海へ
TTITLE2=一本の鉛筆
TTITLE3=?
TTITLE4=たいせつなひと
TTITLE5=遠い昔
TTITLE6=ストーリー
TTITLE7=出逢い (Album ver.)
TTITLE8=反省
TTITLE9=二人称
TTITLE10=ハードル
TTITLE11=パズル
TTITLE12=デッサン
TTITLE13=野蛮人でいい
TTITLE14=いま
EXTD=
EXTT0=
EXTT1=
EXTT2=
EXTT3=
EXTT4=
EXTT5=
EXTT6=
EXTT7=
EXTT8=
EXTT9=
EXTT10=
EXTT11=
EXTT12=
EXTT13=
EXTT14=
PLAYORDER=
